<svg width="16" height="16" viewBox="0 0 16 16" fill="none" xmlns="http://www.w3.org/2000/svg">
<g clip-path="url(#clip0_14701_48)">
<path d="M11.3334 9.33335C11.3334 9.51016 11.2632 9.67973 11.1382 9.80475C11.0131 9.92978 10.8436 10 10.6668 10H5.33343C5.15662 10 4.98705 9.92978 4.86203 9.80475C4.737 9.67973 4.66677 9.51016 4.66677 9.33335C4.66677 9.15654 4.737 8.98697 4.86203 8.86194C4.98705 8.73692 5.15662 8.66668 5.33343 8.66668H10.6668C10.8436 8.66668 11.0131 8.73692 11.1382 8.86194C11.2632 8.98697 11.3334 9.15654 11.3334 9.33335ZM8.66677 11.3333H5.33343C5.15662 11.3333 4.98705 11.4036 4.86203 11.5286C4.737 11.6536 4.66677 11.8232 4.66677 12C4.66677 12.1768 4.737 12.3464 4.86203 12.4714C4.98705 12.5964 5.15662 12.6667 5.33343 12.6667H8.66677C8.84358 12.6667 9.01315 12.5964 9.13817 12.4714C9.2632 12.3464 9.33343 12.1768 9.33343 12C9.33343 11.8232 9.2632 11.6536 9.13817 11.5286C9.01315 11.4036 8.84358 11.3333 8.66677 11.3333ZM14.6668 6.99002V12.6667C14.6657 13.5504 14.3142 14.3976 13.6893 15.0225C13.0644 15.6474 12.2172 15.999 11.3334 16H4.66677C3.78304 15.999 2.93581 15.6474 2.31091 15.0225C1.68602 14.3976 1.33449 13.5504 1.33343 12.6667V3.33335C1.33449 2.44962 1.68602 1.60239 2.31091 0.977495C2.93581 0.352603 3.78304 0.00107394 4.66677 1.53658e-05H7.67677C8.28985 -0.00156258 8.89716 0.118407 9.46358 0.352988C10.03 0.587569 10.5443 0.932107 10.9768 1.36668L13.2994 3.69068C13.7343 4.12284 14.079 4.63699 14.3137 5.20333C14.5484 5.76968 14.6684 6.37696 14.6668 6.99002ZM10.0341 2.30935C9.82429 2.10612 9.58872 1.9313 9.33343 1.78935V4.66668C9.33343 4.84349 9.40367 5.01306 9.5287 5.13809C9.65372 5.26311 9.82329 5.33335 10.0001 5.33335H12.8774C12.7354 5.07814 12.5603 4.84278 12.3568 4.63335L10.0341 2.30935ZM13.3334 6.99002C13.3334 6.88002 13.3121 6.77468 13.3021 6.66668H10.0001C9.46967 6.66668 8.96096 6.45597 8.58589 6.0809C8.21081 5.70582 8.0001 5.19711 8.0001 4.66668V1.36468C7.8921 1.35468 7.7861 1.33335 7.67677 1.33335H4.66677C4.13633 1.33335 3.62763 1.54406 3.25255 1.91914C2.87748 2.29421 2.66677 2.80292 2.66677 3.33335V12.6667C2.66677 13.1971 2.87748 13.7058 3.25255 14.0809C3.62763 14.456 4.13633 14.6667 4.66677 14.6667H11.3334C11.8639 14.6667 12.3726 14.456 12.7476 14.0809C13.1227 13.7058 13.3334 13.1971 13.3334 12.6667V6.99002Z" fill="white"/>
</g>
<defs>
<clipPath id="clip0_14701_48">
<rect width="16" height="16" fill="white"/>
</clipPath>
</defs>
</svg>
